<?xml version="1.0" encoding="UTF-8" standalone="no"?>
<!-- Created with Inkscape (http://www.inkscape.org/) -->

<svg
   xmlns:dc="http://purl.org/dc/elements/1.1/"
   xmlns:cc="http://creativecommons.org/ns#"
   xmlns:rdf="http://www.w3.org/1999/02/22-rdf-syntax-ns#"
   xmlns:svg="http://www.w3.org/2000/svg"
   xmlns="http://www.w3.org/2000/svg"
   xmlns:xlink="http://www.w3.org/1999/xlink"
   xmlns:sodipodi="http://sodipodi.sourceforge.net/DTD/sodipodi-0.dtd"
   xmlns:inkscape="http://www.inkscape.org/namespaces/inkscape"
   width="210mm"
   height="297mm"
   viewBox="0 0 744.09448819 1052.3622047"
   id="svg2"
   version="1.1"
   inkscape:version="0.91 r13725"
   sodipodi:docname="perhaps logo base.svg">
  <defs
     id="defs4" />
  <sodipodi:namedview
     id="base"
     pagecolor="#000000"
     bordercolor="#666666"
     borderopacity="1.0"
     inkscape:pageopacity="1"
     inkscape:pageshadow="2"
     inkscape:zoom="0.7"
     inkscape:cx="330.12221"
     inkscape:cy="487.20591"
     inkscape:document-units="px"
     inkscape:current-layer="layer1"
     showgrid="false"
     inkscape:window-width="1280"
     inkscape:window-height="962"
     inkscape:window-x="-8"
     inkscape:window-y="-8"
     inkscape:window-maximized="1" />
  <metadata
     id="metadata7">
    <rdf:RDF>
      <cc:Work
         rdf:about="">
        <dc:format>image/svg+xml</dc:format>
        <dc:type
           rdf:resource="http://purl.org/dc/dcmitype/StillImage" />
        <dc:title></dc:title>
      </cc:Work>
    </rdf:RDF>
  </metadata>
  <g
     inkscape:label="Layer 1"
     inkscape:groupmode="layer"
     id="layer1">
    <path
       style="opacity:0.85;fill:#ffffff;fill-opacity:1;fill-rule:nonzero;stroke:none;stroke-width:6.70200014;stroke-linecap:butt;stroke-linejoin:miter;stroke-miterlimit:4;stroke-dasharray:none;stroke-opacity:1"
       d="m 8.9437287,1050.1479 c 0,0 219.5036413,-75.75369 286.1535113,-162.97245 67.57424,-88.42838 83.22678,-323.33575 83.22678,-323.33575 l 0.003,483.0205 c 0,0 -162.07452,-3.6517 -369.3830313,3.2877 z"
       id="path4136-3"
       inkscape:connector-curvature="0"
       sodipodi:nodetypes="cacccc" />
    <path
       style="opacity:0.85;fill:#ffffff;fill-opacity:1;fill-rule:nonzero;stroke:#000000;stroke-width:0.69999999;stroke-linecap:butt;stroke-linejoin:miter;stroke-miterlimit:4;stroke-dasharray:none;stroke-opacity:1"
       d="m 379.78728,419.43326 c 0,0 4.20869,-78.0517 -20.52057,-102.6862 -24.72925,-24.63449 -102.76421,-20.12618 -102.76421,-20.12618 0,0 78.0517,4.20869 102.68619,-20.52056 24.63449,-24.72926 20.12618,-102.76422 20.12618,-102.76422 0,0 -4.20869,78.0517 20.52057,102.68619 24.72925,24.63449 102.76421,20.12618 102.76421,20.12618 0,0 -78.0517,-4.20869 -102.68619,20.52057 -24.63449,24.72925 -20.12618,102.76422 -20.12618,102.76422 z"
       id="path4136"
       inkscape:connector-curvature="0"
       sodipodi:nodetypes="cscscsczc" />
    <use
       x="0"
       y="0"
       xlink:href="#path4136-3"
       id="use4184"
       transform="matrix(-1,0,0,1,756.28522,0)"
       width="100%"
       height="100%" />
    <use
       x="0"
       y="0"
       xlink:href="#path4136"
       id="use4186"
       transform="translate(-142.85711,168.13753)"
       width="100%"
       height="100%" />
    <use
       x="0"
       y="0"
       xlink:href="#use4186"
       id="use4188"
       transform="translate(285.71429,-1.9999997e-7)"
       width="100%"
       height="100%" />
  </g>
</svg>
